<?xml version="1.0" encoding="utf-8"?>
<!-- Generator: Adobe Illustrator 18.0.0, SVG Export Plug-In . SVG Version: 6.00 Build 0)  -->
<!DOCTYPE svg PUBLIC "-//W3C//DTD SVG 1.1//EN" "http://www.w3.org/Graphics/SVG/1.1/DTD/svg11.dtd">
<svg version="1.1"
	 id="Layer_1" xmlns:sodipodi="http://sodipodi.sourceforge.net/DTD/sodipodi-0.dtd" xmlns:cc="http://creativecommons.org/ns#" xmlns:rdf="http://www.w3.org/1999/02/22-rdf-syntax-ns#" xmlns:svg="http://www.w3.org/2000/svg" xmlns:dc="http://purl.org/dc/elements/1.1/" xmlns:inkscape="http://www.inkscape.org/namespaces/inkscape"
	 xmlns="http://www.w3.org/2000/svg" xmlns:xlink="http://www.w3.org/1999/xlink" x="0px" y="0px" viewBox="241 0 799 800"
	 enable-background="new 241 0 799 800" xml:space="preserve">
<g id="g2987" transform="matrix(0.98046874,0,0,0.98046874,4.9935963,4.9986352)">
	<path id="path2989" fill="none" stroke="#000000" stroke-width="10.1992" d="M1047.6,402.9c0,220.9-179.1,400-400,400
		s-400-179.1-400-400s179.1-400,400-400S1047.6,181.9,1047.6,402.9z"/>
</g>
<g id="g2983" transform="translate(889.672,27.929991)">
	<path id="path2989-2" d="M-148.2,295.1h-69.2v-45.3c0-17,11.3-20.9,19.2-20.9c8,0,48.8,0,48.8,0V154l-67.2-0.3
		c-74.5,0-91.6,55.8-91.6,91.6v49.8h-43.1v77.2h43.1c0,99.1,0,218.3,0,218.3h90.8c0,0,0-120.5,0-218.3h61.3L-148.2,295.1
		L-148.2,295.1z"/>
</g>
<g id="Layer_1_1_">
</g>
</svg>
