<?xml version="1.0" encoding="utf-8"?>
<!-- Generator: Adobe Illustrator 18.0.0, SVG Export Plug-In . SVG Version: 6.00 Build 0)  -->
<!DOCTYPE svg PUBLIC "-//W3C//DTD SVG 1.1//EN" "http://www.w3.org/Graphics/SVG/1.1/DTD/svg11.dtd">
<svg version="1.1"
	 id="Layer_1" xmlns:sodipodi="http://sodipodi.sourceforge.net/DTD/sodipodi-0.dtd" xmlns:dc="http://purl.org/dc/elements/1.1/" xmlns:svg="http://www.w3.org/2000/svg" xmlns:rdf="http://www.w3.org/1999/02/22-rdf-syntax-ns#" xmlns:inkscape="http://www.inkscape.org/namespaces/inkscape" xmlns:cc="http://creativecommons.org/ns#"
	 xmlns="http://www.w3.org/2000/svg" xmlns:xlink="http://www.w3.org/1999/xlink" x="0px" y="0px" viewBox="0 0 512 512"
	 enable-background="new 0 0 512 512" xml:space="preserve">
<g id="g2987" transform="matrix(0.98046874,0,0,0.98046874,4.9935963,4.9986352)">
	<path id="path2989" fill="#000000" stroke="#000000" stroke-width="10.1992" d="M512,256c0,141.4-114.6,256-256,256S0,397.4,0,256
		S114.6,0,256,0S512,114.6,512,256z"/>
</g>
<g id="g2983" transform="translate(889.672,27.929991)">
	<path id="path2989-2" d="M-568.7,178.8H-613v-29c0-10.9,7.2-13.4,12.3-13.4c5.1,0,31.2,0,31.2,0V88.5l-43-0.2
		c-47.7,0-58.6,35.7-58.6,58.6v31.9h-27.6v49.4h27.6c0,63.4,0,139.7,0,139.7h58.1c0,0,0-77.1,0-139.7h39.2L-568.7,178.8
		L-568.7,178.8z"/>
</g>
<g id="Layer_1_1_">
</g>
</svg>
