<?xml version="1.0" encoding="utf-8"?>
<!-- Generator: Adobe Illustrator 18.0.0, SVG Export Plug-In . SVG Version: 6.00 Build 0)  -->
<!DOCTYPE svg PUBLIC "-//W3C//DTD SVG 1.1//EN" "http://www.w3.org/Graphics/SVG/1.1/DTD/svg11.dtd">
<svg version="1.1" id="Layer_1" xmlns="http://www.w3.org/2000/svg" xmlns:xlink="http://www.w3.org/1999/xlink" x="0px" y="0px"
	 viewBox="493.6 0 786.4 800" enable-background="new 493.6 0 786.4 800" xml:space="preserve">
<g>
	<path fill="#C85E5E" d="M886.5,793.6C673,793,497.6,619.4,498.8,399.4c0.9-217.3,176.1-392,393-389.7
		C1102.9,12,1277,185,1275.2,404.8C1273.8,621.1,1100.2,793.3,886.5,793.6z M887.2,40.5c-194-0.7-355.8,157.5-357.8,357.2
		C527.3,601.9,690.2,761,883,763c197,2,360.5-157.3,361.6-358C1245.7,202.3,1085.9,40.5,887.2,40.5z"/>
	<path fill="#C85E5E" d="M1130.9,406.1c0,34.4-0.9,68.8,0.2,103.1c2.2,60.9-38.6,111.2-91.6,130.9c-17.7,6.6-35.9,10.2-54.8,10.2
		c-65.3-0.2-130.6,0.6-196.1-0.3c-54.8-0.8-98.3-23.8-127.8-70.8c-11.6-18.4-17.5-38.9-17.7-60.6c-0.3-74.7-0.9-149.4,0.2-224.2
		c0.6-48.1,25.2-83.6,65-109.1c25.5-16.2,53.8-23.1,83.8-23.1c64.4,0,128.6-0.5,193,0.2c50.6,0.6,92.3,20.6,122.5,62
		c15.3,21.1,23.4,45,23.4,71.4C1130.9,332.7,1130.9,369.4,1130.9,406.1z M679.2,405.9c0,36.3,0,72.3,0,108.6c0,14.1,3,27.3,9.5,39.8
		c21.6,40.6,57,58.9,101.4,59.5c63.4,0.9,127,0.2,190.5,0.3c17,0,33.6-3,49.5-9.2c39.7-15.6,64.7-51.7,64.7-94.2
		c0-70.5,0-141.1,0-211.6c0-20.2-5.6-38.4-17.8-54.7c-23.3-30.9-55.2-45.3-93.1-45.6c-64.5-0.6-129.1-0.3-193.6-0.2
		c-14.4,0-28.3,2.8-41.9,7.7c-39.7,14.4-70.9,51.1-69.4,98.9C680.2,338.8,679.2,372.3,679.2,405.9z"/>
	<path fill="#C85E5E" d="M887.5,284.4c63.6,0,115.2,50.8,115,113.4c-0.2,62-51.9,113-114.8,113c-63.6,0-114.7-50.6-114.7-113.6
		C773,334.7,824,284.4,887.5,284.4z M965.7,397.3c-0.2-42.3-35.2-76.7-78.3-76.7c-42.7,0-78.3,35-78.3,77
		c0,42.2,35.2,76.4,78.6,76.4C931.2,473.9,965.8,440,965.7,397.3z"/>
	<path fill="#C85E5E" d="M991.5,275.2c-0.2-14.2,10.5-25.3,23.9-25.3c13.3,0,24.5,11.6,24.4,25.2c0,13.8-11.4,25.2-24.7,25
		C1002,299.8,991.5,288.9,991.5,275.2z"/>
</g>
</svg>
