<?xml version="1.0" encoding="utf-8"?>
<!-- Generator: Adobe Illustrator 18.0.0, SVG Export Plug-In . SVG Version: 6.00 Build 0)  -->
<!DOCTYPE svg PUBLIC "-//W3C//DTD SVG 1.1//EN" "http://www.w3.org/Graphics/SVG/1.1/DTD/svg11.dtd">
<svg version="1.1" id="Layer_1" xmlns="http://www.w3.org/2000/svg" xmlns:xlink="http://www.w3.org/1999/xlink" x="0px" y="0px"
	 viewBox="473.8 0 806.2 800" enable-background="new 473.8 0 806.2 800" xml:space="preserve">
<path d="M1120.6,403.5c0,34.4-0.9,68.8,0.2,103.1c2.2,60.9-38.6,111.2-91.6,130.9c-17.7,6.6-35.9,10.2-54.8,10.2
	c-65.3-0.2-130.6,0.6-196.1-0.3c-54.8-0.8-98.3-23.8-127.8-70.8c-11.6-18.4-17.5-38.9-17.7-60.6c-0.3-74.7-0.9-149.4,0.2-224.2
	c0.6-48.1,25.2-83.6,65-109.1c25.5-16.2,53.8-23.1,83.8-23.1c64.4,0,128.6-0.5,193,0.2c50.6,0.6,92.3,20.6,122.5,62
	c15.3,21.1,23.4,45,23.4,71.4C1120.6,330.1,1120.6,366.8,1120.6,403.5z M668.9,403.3c0,36.3,0,72.3,0,108.6c0,14.1,3,27.3,9.5,39.8
	c21.6,40.6,57,58.9,101.4,59.5c63.4,0.9,127,0.2,190.5,0.3c17,0,33.6-3,49.5-9.2c39.7-15.6,64.7-51.7,64.7-94.2
	c0-70.5,0-141.1,0-211.6c0-20.2-5.6-38.4-17.8-54.7c-23.3-30.9-55.2-45.3-93.1-45.6c-64.5-0.6-129.1-0.3-193.6-0.2
	c-14.4,0-28.3,2.8-41.9,7.7c-39.7,14.4-70.9,51.1-69.4,98.9C669.9,336.2,668.9,369.7,668.9,403.3z"/>
<path d="M877.2,281.8c63.6,0,115.2,50.8,115,113.4c-0.2,62-51.9,113-114.8,113c-63.6,0-114.7-50.6-114.7-113.6
	C762.7,332.1,813.7,281.8,877.2,281.8z M955.4,394.7c-0.2-42.3-35.2-76.7-78.3-76.7c-42.7,0-78.3,35-78.3,77
	c0,42.2,35.2,76.4,78.6,76.4C920.9,471.3,955.5,437.4,955.4,394.7z"/>
<path d="M981.2,272.6c-0.2-14.2,10.5-25.3,23.9-25.3c13.3,0,24.5,11.6,24.4,25.2c0,13.8-11.4,25.2-24.7,25
	C991.7,297.2,981.2,286.3,981.2,272.6z"/>
<g id="g2987" transform="matrix(0.98046874,0,0,0.98046874,4.9935963,4.9986352)">
	<path id="path2989" fill="none" stroke="#000000" stroke-width="10.1992" d="M1287.8,402c0,220.9-179.1,400-400,400
		s-400-179.1-400-400S666.9,2,887.8,2S1287.8,181,1287.8,402z"/>
</g>
</svg>
