<?xml version="1.0" encoding="utf-8"?>
<!-- Generator: Adobe Illustrator 18.0.0, SVG Export Plug-In . SVG Version: 6.00 Build 0)  -->
<!DOCTYPE svg PUBLIC "-//W3C//DTD SVG 1.1//EN" "http://www.w3.org/Graphics/SVG/1.1/DTD/svg11.dtd">
<svg version="1.1" id="Camada_1" xmlns="http://www.w3.org/2000/svg" xmlns:xlink="http://www.w3.org/1999/xlink" x="0px" y="0px"
	 viewBox="0 0 11853 4272" enable-background="new 0 0 11853 4272" xml:space="preserve">
<path fill-rule="evenodd" clip-rule="evenodd" fill="#6441A5" d="M1430.2,2983.1c6.2,11.3,82.1,82,98,96.5
	c-30-81.4,99.2-520.4,124.1-618.1c41.6-163.5,71.2-328,39.4-498.1l-30.3-109.8c-14.9-39.6-10.4-23.9-6.3-29.6
	c-8.8-21.1-37.3-57.1-50.9-75.4c-19.5-26.1-39.8-47.9-57.1-73.5c20.1,11.1,24.1,29.1,49,44.5c-20-32.1-38.2-54-58.4-81.4
	c-18.9-25.6-43.3-44.9-53.8-86.3c-18.5-73.3,29.9-167.6,64.3-207.9c10.1-15.9,17.2-41.1,27.5-57.3
	c50.6-80.2,117.9-105.6,128.6-118.6c3.3-14.9,89-89.1,102.5-99.9c7.9-6.4,10.2-7.9,17.9-15.2l19.2-19.5
	c-41.3,20.1-157.5,119.9-198,153.8c-113.2,94.9-307.6,285-182.9,440.9c63.8,79.8,95.4,157.5,72.6,270.5
	c-34.4,170.4-154.7,238.8-201.3,502.6c-27.6,155.9-8.2,315.5,47.8,461.4l40.2,92.4c1.8,3.6,6.7,12.4,7.7,15
	C1438.9,2992.5,1434.4,2978.3,1430.2,2983.1z"/>
<path fill-rule="evenodd" clip-rule="evenodd" fill="#6441A5" d="M1651.6,1824c123.7,212.3,99.2,392.6,33.3,636.8
	c-27.1,100.4-65.2,194.1-90.9,299.8c-26.6,109.7-47.5,215.2-52.2,334.6c-9.4-4.5-12.6-5.3-17.2-15.5c-15.9-14.5-91.9-85.2-98-96.5
	c-8.5-10.2-19.6-17.8-29.2-28.8c-9.1-10.5-15.9-19.9-25.7-29.7c-243.4-241.6-360-528.8-298-850.6c44-228.6,131.2-315.2,107.9-511
	c-7.4-62.4-22.1-114.6-38.9-170.8c-41.9-140.1-33.2-219,62.5-314.1c31.1-31,76.5-74.4,92.7-117.1c-14.3,10.7-66.6,63.7-105.1,93.8
	c-28.9,22.6-57.9,39.9-84.4,66.7c-9.2,9.4-12.4,18.3-24.5,26.3l0.3-22.1c-4.9-57.3,26.5-135.2,53.2-166.8
	c37.8-44.6,104-46.2,178-40.8c68.4,5,139.1,14,178.4-30.3c38-42.9,45.1-117.3,41.5-187.2c-24.2,35.7,7.5,227.1-226.6,164.4
	c-552.1-147.8-196.8,624-206.9,777.4c8.1,161.3-76.9,216.6-116.3,377.1c-43,237.9-18.2,420.3,100.7,638.1
	c41.6,76.3,81,137.2,127.1,200.9c24.4,33.8,47.2,62.2,73,92.7l76,86.1c50.3,55,108.1,117.3,163.8,164.4c25.9,21.8,19.3,20,25.7,59.2
	c22.8,139.9,73.2,231.3,164.4,329.2c7.6,8.2,12.6,12.6,20.6,20.1c65.1,61.3,128.1,104.3,218.7,149.8c26.3,13.2,216.8,98.1,237,91.6
	c-46.3-12.1-148.6-67.2-190.3-90.4c-79.3-44-180.9-115.3-237-183.2c-65.9-79.9-123.1-165.7-135.5-281.9l381.7,293.7
	c67.7,49.2,185.9,146.7,239.8,206.2c36.3,40.1,68.6,73,101.9,122.8c67.9,101.7,98.4,175,141.8,305.5c-2.6-47.3-36.1-141.7-53.2-184
	c-23.2-57.2-49.8-107-78.6-153.7c-21.6-35.1-60.1-85.9-87.5-118.9c-61.8-74.4-97.7-102.5-157.7-162.8l-299-257.5
	c-6.4-5.6-9.9-7.3-16.3-13.3l-92.2-81c-86.6-86.1-94.1-51.7-86.4-142.9c8-95.9,31.8-201.5,55.2-293.8
	c93.7-370.3,198.6-696.9-40-1032.4c-10-14.1-44.2-54-46.6-64.3c-24.9-15.3-28.9-33.3-49-44.5c17.3,25.6,37.6,47.4,57.1,73.5
	C1614.3,1766.9,1642.8,1802.9,1651.6,1824z"/>
<path fill-rule="evenodd" clip-rule="evenodd" fill="#6441A5" d="M1606.4,622.8c-36.1,9-91.9,37.8-133.4,52.4
	c-43.7,15.3-124.9,45.5-123.6-27.7c1.2-66.4,71.9-224.5,97.4-285.9c18.1-43.6,36.9-90.3,56.7-131.4
	c41.6-86.5,110.9-192.1,210.8-106.1c53,45.7,54.7,65.4,88.6,102.9C1773.6,117.9,1671.9,4.6,1550,59.5
	c-173,77.8-271.7,566.2-239,644.8C1354.5,809.4,1559.2,649.8,1606.4,622.8z"/>
<path fill-rule="evenodd" clip-rule="evenodd" fill="#6441A5" d="M2149.8,2513.2l-63.4-71.2c-37.6-39.6-74.3-81.4-103.2-128.8
	c-50.1-82-66.8-179.3-80.4-288.3c-13.4-107.8-26.5-216-39.7-324c-11.3-92.6-56-201.1-88.9-279.8c2.2,47.7,15.3,107.6,20,159.9
	c28.3,314.5-46.3,517.7,159.6,757.9c7.4,8.7,14.4,14.2,21.7,22.4c36.5,41.6,78.2,75.6,120.6,111.6
	C2109.8,2484.6,2132.2,2503.6,2149.8,2513.2z"/>
<path fill-rule="evenodd" clip-rule="evenodd" fill="#6441A5" d="M2001.7,1451.5c21.8-33.2,68.2-192.7,79.4-245.4
	c21.6-102.3,24.3-199.5-42.4-256.6c-83.5-71.5-282.3,31.8-253.8-232.1c3.9-36,23.4-108.1,22.8-134.2c0.2,14.2-64.5,139-71.6,241
	c-15.5,222.7,261.4,85.4,293.8,340.4C2042.8,1266.9,2005.8,1355.3,2001.7,1451.5z"/>
<path fill-rule="evenodd" clip-rule="evenodd" fill="#6441A5" d="M378.2,2364c330.9-24.9,542.2-345.5,643.6-802.6
	C860.1,1911,678.1,2295.2,378.2,2364z"/>
<path fill-rule="evenodd" clip-rule="evenodd" fill="#6441A5" d="M1700.8,1168.1c-10.7,12.9-77.9,38.3-128.6,118.6
	c-10.2,16.2-17.4,41.4-27.5,57.3c-13,56.3-27.3,118.5-22.3,181.3c30.3-49,15.4-139.6,167.9-301c8.8-9.3,15.5-14.7,24.3-23.7
	c19.5-20,113.8-105.6,123.2-108.2C1820,1095.5,1723.5,1154.8,1700.8,1168.1z"/>
<path fill-rule="evenodd" clip-rule="evenodd" fill="#FFFFFF" d="M7085,4769.8c-5,5.1-26.3,36.2-23.5,49.3c2.6,12.1,33,25.2,49.9,26
	c33,1.5,22.5-46.4,21.9-47.7C7131,4793,7094.5,4771.4,7085,4769.8z"/>
<path fill-rule="evenodd" clip-rule="evenodd" fill="#FFFFFF" d="M7092.6,4780.6c-5,5.1-26.3,36.2-23.5,49.3
	c2.6,12.1,33,25.2,49.9,26c33,1.5,22.5-46.4,21.9-47.7C7138.7,4803.8,7102.2,4782.1,7092.6,4780.6z"/>
<path fill-rule="evenodd" clip-rule="evenodd" fill="#FFFFFF" d="M4026.7,4773.7"/>
<path fill-rule="evenodd" clip-rule="evenodd" fill="#FFFFFF" d="M4033.6,4783.4"/>
<path fill-rule="evenodd" clip-rule="evenodd" fill="#FFFFFF" d="M4044.6,4821.2"/>
<path fill-rule="evenodd" clip-rule="evenodd" fill="#FFFFFF" d="M4050,4828.7"/>
<g>
	<path fill="#6441A5" d="M3374.2,3034.1l10.3,8.5l2.1,19.1l-10.3,12.7c-155.5,0-272.4,21.3-350.9,63.8
		c-79.1,41.9-118.7,105-118.7,189.4c0,56.3,25.4,100.6,76.4,132.8c48.8,33.6,114.2,50.5,196.1,50.5c132.8,0,244.2-35.1,334.4-105.3
		c90.1-70.2,135.2-155.5,135.2-255.9c0-22.7-2.1-43.7-6.2-63c-4.1-19.9-12.4-41.3-24.8-64c-18.6-40.6-49.5-82.9-92.9-126.9
		l-175.4-177.5c-46.8-46.1-83.6-94.6-110.4-145.5c-26.8-50.9-40.2-98.7-40.2-143.4c0-99.1,49.9-184.4,149.6-255.9
		c99.7-71.5,222.2-107.3,367.4-107.3c86,0,153.1,14.8,201.2,44.4c48.2,31,72.2,73.6,72.2,128c0,57.8-32.7,106.6-98,146.5
		c-66,39.2-150.3,58.8-252.8,58.8h-32l-40.2-2.1l-10.3-8.3V2417l8.3-11.4c91.5,0,162.7-14.8,213.6-44.4
		c52.3-26.8,78.4-67.8,78.4-122.8c0-37.8-16.5-68.1-49.5-90.8c-33.7-20.6-78.8-31-135.2-31c-94.3,0-174.4,25.8-240.4,77.4
		c-67.4,53.7-101.1,116.6-101.1,188.9c0,37.8,11.4,76.4,34.1,115.6c21.3,41.3,56.4,88.1,105.3,140.3l181.6,185.8
		c42.6,40.6,76,85.7,100.1,135.2c22,52.3,33,100.8,33,145.5c0,48.2-12.4,96.7-37.2,145.5c-27.5,49.5-63,93.9-106.3,133.1
		c-64,55-136.6,97.4-217.7,126.9c-83.2,29.6-172.7,44.4-268.3,44.4c-121.8,0-219.3-22.2-292.6-66.6
		c-73.3-44.4-109.9-104.4-109.9-180.1c0-87.4,49.4-155,148.1-202.8c98.7-47.8,241.3-71.7,427.7-71.7H3374.2z"/>
	<path fill="#6441A5" d="M3880.9,4135.3h-8.3c-9.6-28.2-16.5-65.7-20.6-112.5l-9.3-135.2c0-99.8,13.4-194.7,40.2-284.8
		c11.7-44,28.2-90.8,49.5-140.3c21.3-47.5,45.1-96,71.2-145.5l34.1-185.8c33.7-193.3,65.4-293.4,94.9-300.3l84.6-16.5l17.5,6.2
		l4.1,14.4v8.3l-59.9,241.5c73.6-101.8,137.3-173,190.9-213.6c52.3-41.3,103.5-61.9,153.8-61.9c50.9,0,91.2,16.5,120.7,49.5
		c28.2,33.7,42.3,76.4,42.3,128c0,73.6-28.2,146.9-84.6,219.8c-28.2,35.8-61.9,69.1-101.1,100.1c-39.9,32.3-88.1,63.3-144.5,92.9
		c13.1,17.9,29.4,32.2,49,42.8c19.6,10.7,42.8,16,69.7,16c64.7,0,137.9-40.2,219.8-120.7c80.5-79.8,178.5-210.5,294.1-392.1
		l4.1,14.4l2.1,12.4c0,22.7-7.9,46.8-23.7,72.2c-5.5,12.4-16,29.9-31.5,52.6c-15.5,22.7-36.6,51.6-63.5,86.7
		c-101.1,133.5-185.4,225-252.8,274.5c-68.1,50.9-135.2,76.4-201.2,76.4c-53.7,0-105.3-12.7-154.8-38.2
		c-44.7-25.4-67.1-50.2-67.1-74.3c0-11,18.2-25.1,54.7-42.3l59.9-31c70.2-45.4,125-96.3,164.6-152.7
		c39.6-56.4,59.3-114.2,59.3-173.4c0-29.6-8.6-54.7-25.8-75.3c-18.6-21.3-42-32-70.2-32c-37.8,0-82.2,26.2-133.1,78.4
		c-24.8,24.8-49.9,55-75.3,90.8c-26.8,35.1-53.7,75-80.5,119.7c-32.3,143.8-60.5,263.8-84.6,360.2
		c-28.2,114.2-52.3,204.3-72.2,270.4C3954.1,3985.6,3915.3,4085.7,3880.9,4135.3z M3902.5,3968.1c17.2-31,32.7-89.4,46.4-175.4
		c13.1-84.6,25.8-198.8,38.2-342.6c-32.3,52.3-56.4,114.5-72.2,186.8c-17.2,71.5-25.8,148.2-25.8,230.1l2.1,54.7L3902.5,3968.1z"/>
	<path fill="#6441A5" d="M5281.3,3211.6c-34.4,60.5-65.7,111.1-93.9,151.7c-28.9,42-56.1,76.4-81.5,103.2
		c-52.3,53-100.8,79.5-145.5,79.5c-52.3,0-93.2-19.9-122.8-59.9c-31.7-36.5-47.5-90.1-47.5-161c0-60.5,18.6-124.5,55.7-191.9
		c35.1-68.1,85.3-132.4,150.7-193c42-39.2,89.8-70.2,143.4-92.9c52.3-20.6,104.9-31,157.9-31c34.4,0,61,2.1,80,6.2
		c18.9,4.1,36.8,8.9,53.7,14.4c16.8,5.5,32.5,11,47,16.5l10.3,15.5c0,19.3-8.6,54.4-25.8,105.3l-18.6,66l-92.9,316.8l-2.1,6.2
		l-11.4,68.1c0,8.3,4.5,17.2,13.4,26.8c6.9,10.3,15.1,15.5,24.8,15.5c32.3,0,81.2-37.5,146.5-112.5c28.2-32.3,68.1-82.2,119.7-149.6
		c50.9-68.1,108-147.9,171.3-239.4l2.1,14.4l2.1,13.4c0,22.7-21,63.6-62.9,122.8l-10.3,14.4l-13.4,14.4
		c-192.6,262.8-328.5,394.2-407.6,394.2c-31,0-55.7-8.6-74.3-25.8c-18.6-17.2-27.9-42.7-27.9-76.4c0-19.9,5.2-47.5,15.5-82.6
		c8.3-37.8,15.1-66,20.6-84.6C5268.5,3248.5,5276.4,3226.8,5281.3,3211.6z M5380.3,2893.8c-2.8-4.1-7.6-8.3-14.5-12.4
		c-6.9-2.7-16.9-6.9-29.9-12.4c-12.4-4.1-28.6-6.2-48.5-6.2c-33.7,0-66.7,13.4-99.1,40.2c-36.5,26.2-74,66-112.5,119.7
		c-50.9,70.9-89.1,137.9-114.5,201.2c-26.8,63.3-40.2,117.6-40.2,163.1c0,24.8,6.5,45.8,19.6,63c11.7,18.6,26.5,27.9,44.4,27.9
		c48.2,0,108-52.3,179.6-156.9C5236.9,3216.5,5308.8,3074,5380.3,2893.8z"/>
	<path fill="#6441A5" d="M6039.8,3500.6c-16.5,8.3-32.2,15-47,20.1c-14.8,5.2-34.9,11.2-60.4,18.1c-26.8,7.6-55.1,11.4-84.6,11.4
		c-60.5,0-109.1-11.7-145.5-35.1c-37.2-20.6-55.7-47.8-55.7-81.5c0-25.4,12-47.5,36.1-66c22.7-16.5,49.5-24.8,80.5-24.8l29.9,4.1
		l26.8,6.2c-9.6,13.8-18.8,26.7-27.3,38.7c-8.6,12-12.9,25.3-12.9,39.7c0,19.3,10,36.8,29.9,52.6c19.9,12.4,46.8,18.6,80.5,18.6
		c48.8,0,90.5-12.7,124.9-38.2c32.3-25.4,48.5-57.1,48.5-94.9c0-25.4-6.5-47.8-19.6-67.1c-13.8-19.9-48.9-51.9-105.3-96
		c-63.3-47.5-104.2-83.2-122.8-107.3c-17.9-24.1-26.8-50.2-26.8-78.4c0-55,30.3-103.5,90.8-145.5c59.2-42.7,130.7-64,214.6-64
		c49.5,0,86.3,7.9,110.4,23.7c24.1,15.8,36.1,39.2,36.1,70.2c0,23.4-14.1,46.4-42.3,69.1c-13.1,10.3-27.2,17.5-42.3,21.7
		c-17.2,5.5-36.8,9.6-58.8,12.4l-7.2-10.3c13.1-8.9,23-20.3,29.9-34.1c5.5-12.4,8.3-27.2,8.3-44.4c0-18.6-7.7-33.4-23.2-44.4
		c-15.5-11-36-16.5-61.4-16.5c-40.6,0-72.9,9.6-97,28.9c-25.5,20-38.2,44-38.2,72.2c0,39.2,36.8,85,110.4,137.3l58.8,44.4
		c35.1,26.8,61,54.4,77.9,82.6c16.9,28.2,25.3,56.4,25.3,84.6c0,22.7-4.1,42.3-12.4,58.8c-8.3,18.6-23.7,40.6-46.4,66
		c53.7-8.9,117.6-55.7,191.9-140.3c73.6-82.6,155.5-197.8,245.6-345.7l6.2,8.3l2.1,14.4c0,11-2.1,23.2-6.2,36.6
		c-4.1,13.4-11.7,29.4-22.7,48c-15.8,33.7-43.3,76.7-82.6,129c-73.6,103.9-142.8,180.6-207.4,230.1
		C6183.2,3463.4,6113.4,3492.3,6039.8,3500.6z"/>
	<path fill="#6441A5" d="M6777.6,3500.6c-16.5,8.3-32.2,15-47,20.1c-14.8,5.2-34.9,11.2-60.4,18.1c-26.8,7.6-55.1,11.4-84.6,11.4
		c-60.5,0-109.1-11.7-145.5-35.1c-37.2-20.6-55.7-47.8-55.7-81.5c0-25.4,12-47.5,36.1-66c22.7-16.5,49.5-24.8,80.5-24.8l29.9,4.1
		l26.8,6.2c-9.6,13.8-18.8,26.7-27.3,38.7c-8.6,12-12.9,25.3-12.9,39.7c0,19.3,10,36.8,29.9,52.6c19.9,12.4,46.8,18.6,80.5,18.6
		c48.8,0,90.5-12.7,124.9-38.2c32.3-25.4,48.5-57.1,48.5-94.9c0-25.4-6.5-47.8-19.6-67.1c-13.8-19.9-48.9-51.9-105.3-96
		c-63.3-47.5-104.2-83.2-122.8-107.3c-17.9-24.1-26.8-50.2-26.8-78.4c0-55,30.3-103.5,90.8-145.5c59.2-42.7,130.7-64,214.7-64
		c49.5,0,86.3,7.9,110.4,23.7c24.1,15.8,36.1,39.2,36.1,70.2c0,23.4-14.1,46.4-42.3,69.1c-13.1,10.3-27.2,17.5-42.3,21.7
		c-17.2,5.5-36.8,9.6-58.8,12.4l-7.2-10.3c13.1-8.9,23-20.3,29.9-34.1c5.5-12.4,8.3-27.2,8.3-44.4c0-18.6-7.7-33.4-23.2-44.4
		c-15.5-11-36-16.5-61.4-16.5c-40.6,0-72.9,9.6-97,28.9c-25.5,20-38.2,44-38.2,72.2c0,39.2,36.8,85,110.4,137.3l58.8,44.4
		c35.1,26.8,61,54.4,77.9,82.6c16.9,28.2,25.3,56.4,25.3,84.6c0,22.7-4.1,42.3-12.4,58.8c-8.3,18.6-23.7,40.6-46.4,66
		c53.7-8.9,117.6-55.7,191.9-140.3c73.6-82.6,155.5-197.8,245.6-345.7l6.2,8.3l2.1,14.4c0,11-2.1,23.2-6.2,36.6
		c-4.1,13.4-11.7,29.4-22.7,48c-15.8,33.7-43.3,76.7-82.6,129c-73.6,103.9-142.8,180.6-207.4,230.1
		C6921.1,3463.4,6851.2,3492.3,6777.6,3500.6z"/>
	<path fill="#6441A5" d="M7737.4,3327.2c4.1,14.4,11.2,25.1,21.2,32c10,6.9,20.5,10.3,31.5,10.3c29.6,0,68.5-26.8,116.6-80.5
		c46.8-53,130.7-164.8,251.8-335.4l4.1,10.3l2.1,12.4c0,14.4-6.2,34.4-18.6,59.9l-70.2,103.2c-86,118.3-154.5,201.6-205.4,249.7
		c-44.7,42-83.9,62.9-117.6,62.9c-11.7,0-23.7-2.7-36.1-8.3c-13.1-4.1-27.2-14.1-42.3-29.9c-45.4,48.2-92.5,84.3-141.4,108.4
		c-25.5,11-48.9,19.6-70.2,25.8c-22.7,5.5-46.8,8.3-72.2,8.3c-77.1,0-139-24.1-185.8-72.2c-47.5-46.8-71.2-110.4-71.2-190.9
		c0-60.5,12-115.2,36.1-164.1c22-53.7,57.1-106.6,105.3-158.9c46.1-50.9,96.7-91.2,151.7-120.7c56.4-26.8,110.1-40.2,161-40.2
		c66,0,120.9,25.5,164.6,76.4c43.7,50.9,65.5,113.5,65.5,187.8c0,39.9-6.2,80.8-18.6,122.8c-7.6,24.1-15.5,45.4-23.7,64
		C7767.3,3278,7754.5,3300.4,7737.4,3327.2z M7712.6,2998c-8.9-48.1-24.4-85-46.4-110.4c-24.1-24.1-53.7-36.1-88.7-36.1
		c-14.4,0-34.4,5.2-59.9,15.5c-22,12.4-41.6,27.2-58.8,44.4c-50.9,46.1-92.9,109.4-125.9,189.9c-34.4,81.9-51.6,157.9-51.6,228.1
		c0,57.8,11.2,102.2,33.5,133.1c22.3,31,54.9,46.4,97.5,46.4c33.7,0,68.8-14.1,105.3-42.3c21.3-16.5,40.6-34.7,57.8-54.7
		c15.1-18.6,33.4-44,54.7-76.4l-12.4-33l-3.1-42.3c0-39.9,7.9-82.9,23.7-129c8.3-22.7,18.9-44.7,32-66
		C7681.3,3044.5,7695.4,3022.1,7712.6,2998z"/>
	<path fill="#6441A5" d="M9569.1,3602.8l-17.5-14.4l84.6-983.5l4.1-70.2l2.1-56.8c0-114.2-38.5-200.9-115.6-260.1
		c-79.1-57.8-194.7-86.7-346.7-86.7c-138.3,0-248.4,27.5-330.2,82.6c-83.2,55-124.9,130.4-124.9,226c0,84.6,38.9,151.7,116.6,201.2
		c76.4,50.2,179.9,75.3,310.6,75.3l64-4.1l83.6-8.3l11.4,4.1l4.1,23.7l-6.2,12.4l-88.9,12.4l-98.2,4.1
		c-161.9,0-288.7-30.3-380.3-90.8c-91.6-60.5-137.4-142.1-137.4-244.6c0-103.2,48.5-185.8,145.6-247.7
		c97.1-60.5,230.3-90.8,399.7-90.8c212.8,0,370.1,38.2,472,114.6c101.2,75.7,151.8,194,151.8,355l-2.1,103.2l-6.2,88.7l-36.1,363.3
		l-14.5,126.9l-23.7,189.9c197.4-199.5,343.3-395.9,437.6-589.3c94.9-191.3,142.4-391.5,142.4-600.6v-41.3v-27.9l139.3-116.6
		l14.4,4.1l4.1,21.7l2.1,22.7c0,24.1-2.8,53-8.3,86.7l-23.7,116.6c-9.6,40.6-20,80.2-31,118.7c-18.6,64.7-39.9,125.2-64,181.6
		c-32.3,86-76,175.4-131.1,268.3c-77.1,136.9-167.9,268-272.4,393.2c-46.1,56.4-98,113.5-155.8,171.3
		C9685.4,3496.8,9626.9,3551.8,9569.1,3602.8z"/>
	<path fill="#6441A5" d="M10302.8,3280.8l131.1-407.6l16.5-25.8l23.7-10.3l73.3-14.4h8.3l11.3,4.1l4.1,10.3v8.3l-141.4,439.6
		l-23.7,86.7l-8.3,48.5c0,17.2,4.1,31.3,12.4,42.3c8.3,13.1,21,19.6,38.2,19.6c40.6,0,99.7-42.3,177.5-126.9
		c76.4-84.6,174.4-216.4,294.1-395.2l2.1,16.5l2.1,10.3c0,31.7-30.3,88.7-90.8,171.3l-20.6,29.9
		c-92.2,125.2-171.3,215.5-237.4,270.9c-66,55.4-126.6,83.1-181.6,83.1c-36.5,0-65.4-11.7-86.7-35.1c-21.3-22-32-53-32-92.9
		l6.2-54.7L10302.8,3280.8z M10613.5,2647.1c-13.1,0-26.7-1.9-40.8-5.7c-14.1-3.8-27.3-9.1-39.7-16c-26.8-13.8-40.2-27.9-40.2-42.3
		c0-8.3,7.9-27.9,23.7-58.8c6.9-12.4,13.8-23,20.6-32c2.7-2.7,6.2-6.2,10.3-10.3c5.5,0,16.8,4.8,34.1,14.4l29.9,19.6l15.5,8.3
		c16.5,6.9,26.1,16.9,28.9,29.9c0,35.1-2.8,58.8-8.3,71.2C10639.9,2639.9,10628.6,2647.1,10613.5,2647.1z"/>
	<path fill="#6441A5" d="M10718.7,4135.3h-8.3c-9.6-28.2-16.5-65.7-20.6-112.5l-9.3-135.2c0-99.8,13.4-194.7,40.2-284.8
		c11.7-44,28.2-90.8,49.5-140.3c21.3-47.5,45.1-96,71.2-145.5l34.1-185.8c33.7-193.3,65.4-293.4,94.9-300.3l84.6-16.5l17.5,6.2
		l4.1,14.4v8.3l-59.9,241.5c73.6-101.8,137.3-173,190.9-213.6c52.3-41.3,103.5-61.9,153.8-61.9c50.9,0,91.2,16.5,120.7,49.5
		c28.2,33.7,42.3,76.4,42.3,128c0,73.6-28.2,146.9-84.6,219.8c-28.2,35.8-61.9,69.1-101.1,100.1c-39.9,32.3-88.1,63.3-144.5,92.9
		c13.1,17.9,29.4,32.2,49,42.8c19.6,10.7,42.8,16,69.7,16c64.7,0,137.9-40.2,219.8-120.7c80.5-79.8,178.5-210.5,294.1-392.1
		l4.1,14.4l2.1,12.4c0,22.7-7.9,46.8-23.7,72.2c-5.5,12.4-16,29.9-31.5,52.6c-15.5,22.7-36.6,51.6-63.5,86.7
		c-101.1,133.5-185.4,225-252.8,274.5c-68.1,50.9-135.2,76.4-201.2,76.4c-53.7,0-105.3-12.7-154.8-38.2
		c-44.7-25.4-67.1-50.2-67.1-74.3c0-11,18.2-25.1,54.7-42.3l59.9-31c70.2-45.4,125-96.3,164.6-152.7
		c39.6-56.4,59.3-114.2,59.3-173.4c0-29.6-8.6-54.7-25.8-75.3c-18.6-21.3-42-32-70.2-32c-37.8,0-82.2,26.2-133.1,78.4
		c-24.8,24.8-49.9,55-75.3,90.8c-26.8,35.1-53.7,75-80.5,119.7c-32.3,143.8-60.5,263.8-84.6,360.2
		c-28.2,114.2-52.3,204.3-72.2,270.4C10792,3985.6,10753.1,4085.7,10718.7,4135.3z M10740.4,3968.1c17.2-31,32.7-89.4,46.4-175.4
		c13.1-84.6,25.8-198.8,38.2-342.6c-32.3,52.3-56.4,114.5-72.2,186.8c-17.2,71.5-25.8,148.2-25.8,230.1l2.1,54.7L10740.4,3968.1z"/>
</g>
</svg>
