<?xml version="1.0" encoding="utf-8"?>
<!-- Generator: Adobe Illustrator 18.0.0, SVG Export Plug-In . SVG Version: 6.00 Build 0)  -->
<!DOCTYPE svg PUBLIC "-//W3C//DTD SVG 1.1//EN" "http://www.w3.org/Graphics/SVG/1.1/DTD/svg11.dtd">
<svg version="1.1" id="Camada_1" xmlns="http://www.w3.org/2000/svg" xmlns:xlink="http://www.w3.org/1999/xlink" x="0px" y="0px"
	 viewBox="0 0 11853 4752" enable-background="new 0 0 11853 4752" xml:space="preserve">
<path fill-rule="evenodd" clip-rule="evenodd" fill="#BE5D5D" d="M1293.4,3351.7c7,12.8,92.7,92.6,110.6,108.9
	c-33.8-91.9,112-587.3,140.1-697.6c47-184.5,80.3-370.2,44.5-562.2l-34.2-123.9c-16.8-44.6-11.7-27-7.1-33.4
	c-9.9-23.8-42.1-64.5-57.5-85c-22-29.5-44.9-54-64.4-83c22.7,12.6,27.1,32.9,55.3,50.2c-22.6-36.2-43.1-61-65.9-91.9
	c-21.3-28.9-48.9-50.7-60.7-97.4c-20.9-82.7,33.8-189.1,72.6-234.6c11.4-17.9,19.4-46.4,31-64.7c57.2-90.5,133-119.2,145.1-133.8
	c3.8-16.8,100.4-100.5,115.6-112.8c9-7.2,11.5-8.9,20.2-17.2l21.7-22c-46.6,22.7-177.7,135.3-223.4,173.6
	c-127.7,107.1-347.1,321.7-206.4,497.6c72,90.1,107.7,177.7,81.9,305.2c-38.8,192.3-174.5,269.5-227.1,567.1
	c-31.1,176-9.2,356,53.9,520.7l45.4,104.2c2,4.1,7.6,14,8.7,16.9C1303.2,3362.3,1298.2,3346.3,1293.4,3351.7z"/>
<path fill-rule="evenodd" clip-rule="evenodd" fill="#BE5D5D" d="M1543.2,2043.6c139.6,239.6,111.9,443,37.6,718.6
	c-30.5,113.3-73.6,219-102.6,338.3c-30.1,123.7-53.7,242.9-58.9,377.6c-10.6-5.1-14.3-6-19.4-17.5c-18-16.3-103.7-96.2-110.6-108.9
	c-9.6-11.6-22.2-20.1-33-32.6c-10.3-11.8-17.9-22.5-29-33.5C952.7,3013,821.1,2689,891,2325.8c49.6-258,148-355.7,121.8-576.6
	c-8.4-70.4-24.9-129.3-43.9-192.8c-47.2-158.2-37.5-247.1,70.5-354.5c35.1-35,86.3-83.9,104.7-132.2
	c-16.1,12.1-75.2,71.9-118.6,105.8c-32.6,25.5-65.4,45.1-95.2,75.3c-10.4,10.6-14,20.6-27.6,29.6l0.3-24.9
	c-5.5-64.6,29.9-152.6,60.1-188.2c42.6-50.3,117.3-52.2,200.9-46.1c77.2,5.6,157,15.8,201.3-34.2c42.9-48.4,50.9-132.3,46.8-211.2
	c-27.3,40.3,8.5,256.3-255.7,185.5c-623-166.8-222.1,704.2-233.5,877.3c9.2,182.1-86.8,244.4-131.3,425.5
	c-48.5,268.5-20.5,474.3,113.6,720.1c47,86.1,91.4,154.8,143.4,226.7c27.6,38.1,53.3,70.2,82.4,104.7l85.8,97.1
	c56.8,62.1,121.9,132.4,184.8,185.5c29.2,24.6,21.8,22.6,29,66.8c25.8,157.9,82.6,261,185.5,371.5c8.6,9.2,14.2,14.2,23.2,22.7
	c73.5,69.2,144.6,117.7,246.8,169.1c29.7,14.9,244.6,110.7,267.4,103.4c-52.2-13.6-167.6-75.9-214.8-102
	c-89.5-49.6-204.2-130.1-267.4-206.8c-74.3-90.1-138.9-187-152.9-318.2l430.8,331.4c76.4,55.5,209.8,165.6,270.6,232.7
	c41,45.3,77.5,82.4,115,138.6c76.6,114.8,111,197.5,160,344.7c-2.9-53.3-40.7-159.9-60-207.6c-26.1-64.5-56.3-120.7-88.6-173.4
	c-24.4-39.7-67.8-96.9-98.7-134.2c-69.7-83.9-110.3-115.6-178-183.7l-337.4-290.6c-7.2-6.3-11.1-8.2-18.4-15l-104.1-91.4
	c-97.8-97.2-106.2-58.4-97.5-161.3c9.1-108.2,35.9-227.3,62.2-331.5c105.7-417.8,224.1-786.5-45.2-1165
	c-11.3-15.9-49.9-61-52.5-72.5c-28.1-17.3-32.6-37.6-55.3-50.2c19.5,28.9,42.4,53.5,64.4,83
	C1501.1,1979.1,1533.3,2019.7,1543.2,2043.6z"/>
<path fill-rule="evenodd" clip-rule="evenodd" fill="#BE5D5D" d="M1492.2,688c-40.7,10.2-103.7,42.7-150.6,59.1
	c-49.3,17.3-140.9,51.3-139.4-31.2c1.3-75,81.2-253.3,109.9-322.7c20.4-49.2,41.6-101.9,63.9-148.3c47-97.6,125.1-216.8,237.9-119.7
	c59.8,51.5,61.8,73.8,100,116.1c-33-123.1-147.7-250.9-285.4-189c-195.2,87.8-306.6,638.9-269.8,727.7
	C1208,898.6,1438.9,718.5,1492.2,688z"/>
<path fill-rule="evenodd" clip-rule="evenodd" fill="#BE5D5D" d="M2105.5,2821.4L2034,2741c-42.4-44.7-83.9-91.9-116.5-145.4
	c-56.5-92.6-75.4-202.3-90.7-325.4c-15.1-121.6-29.9-243.7-44.8-365.7c-12.7-104.5-63.2-227-100.3-315.8
	c2.5,53.9,17.3,121.4,22.6,180.4c31.9,354.9-52.2,584.2,180.1,855.3c8.4,9.8,16.3,16,24.4,25.3c41.2,46.9,88.3,85.3,136.1,126
	C2060.4,2789.1,2085.7,2810.5,2105.5,2821.4z"/>
<path fill-rule="evenodd" clip-rule="evenodd" fill="#BE5D5D" d="M1938.3,1623.2c24.6-37.4,77-217.5,89.5-276.9
	c24.3-115.4,27.5-225.1-47.8-289.6c-94.2-80.7-318.6,35.9-286.4-261.9c4.4-40.6,26.4-121.9,25.7-151.4c0.2,16-72.8,156.8-80.8,272
	c-17.5,251.3,295,96.4,331.5,384.1C1984.7,1414.9,1942.9,1514.7,1938.3,1623.2z"/>
<path fill-rule="evenodd" clip-rule="evenodd" fill="#BE5D5D" d="M106.2,2653c373.4-28.1,611.9-389.9,726.3-905.7
	C650.1,2141.8,444.6,2575.4,106.2,2653z"/>
<path fill-rule="evenodd" clip-rule="evenodd" fill="#BE5D5D" d="M1598.7,1303.4c-12.1,14.6-87.9,43.3-145.1,133.8
	c-11.5,18.3-19.6,46.8-31,64.7c-14.7,63.5-30.8,133.7-25.1,204.6c34.2-55.3,17.3-157.6,189.4-339.7c9.9-10.5,17.5-16.6,27.4-26.7
	c22-22.6,128.4-119.1,139-122.1C1733.2,1221.5,1624.3,1288.5,1598.7,1303.4z"/>
<path fill-rule="evenodd" clip-rule="evenodd" fill="#FFFFFF" d="M7085,5249.8c-5,5.1-26.3,36.2-23.5,49.3c2.6,12.1,33,25.2,49.9,26
	c33,1.5,22.5-46.4,21.9-47.7C7131,5273,7094.5,5251.4,7085,5249.8z"/>
<path fill-rule="evenodd" clip-rule="evenodd" fill="#FFFFFF" d="M7092.6,5260.6c-5,5.1-26.3,36.2-23.5,49.3
	c2.6,12.1,33,25.2,49.9,26c33,1.5,22.5-46.4,21.9-47.7C7138.7,5283.8,7102.2,5262.1,7092.6,5260.6z"/>
<path fill-rule="evenodd" clip-rule="evenodd" fill="#FFFFFF" d="M4026.7,5253.7"/>
<path fill-rule="evenodd" clip-rule="evenodd" fill="#FFFFFF" d="M4033.6,5263.4"/>
<path fill-rule="evenodd" clip-rule="evenodd" fill="#FFFFFF" d="M4044.6,5301.2"/>
<path fill-rule="evenodd" clip-rule="evenodd" fill="#FFFFFF" d="M4050,5308.7"/>
<g>
	<path fill="#B55C5A" d="M3374.2,3514.1l10.3,8.5l2.1,19.1l-10.3,12.7c-155.5,0-272.4,21.3-350.9,63.8
		c-79.1,41.9-118.7,105-118.7,189.4c0,56.3,25.4,100.6,76.4,132.8c48.8,33.6,114.2,50.5,196.1,50.5c132.8,0,244.2-35.1,334.4-105.3
		c90.1-70.2,135.2-155.5,135.2-255.9c0-22.7-2.1-43.7-6.2-63c-4.1-19.9-12.4-41.3-24.8-64c-18.6-40.6-49.5-82.9-92.9-126.9
		l-175.4-177.5c-46.8-46.1-83.6-94.6-110.4-145.5c-26.8-50.9-40.2-98.7-40.2-143.4c0-99.1,49.9-184.4,149.6-255.9
		c99.7-71.5,222.2-107.3,367.4-107.3c86,0,153.1,14.8,201.2,44.4c48.2,31,72.2,73.6,72.2,128c0,57.8-32.7,106.6-98,146.5
		c-66,39.2-150.3,58.8-252.8,58.8h-32l-40.2-2.1l-10.3-8.3V2897l8.3-11.4c91.5,0,162.7-14.8,213.6-44.4
		c52.3-26.8,78.4-67.8,78.4-122.8c0-37.8-16.5-68.1-49.5-90.8c-33.7-20.6-78.8-31-135.2-31c-94.3,0-174.4,25.8-240.4,77.4
		c-67.4,53.7-101.1,116.6-101.1,188.9c0,37.8,11.4,76.4,34.1,115.6c21.3,41.3,56.4,88.1,105.3,140.3l181.6,185.8
		c42.6,40.6,76,85.7,100.1,135.2c22,52.3,33,100.8,33,145.5c0,48.2-12.4,96.7-37.2,145.5c-27.5,49.5-63,93.9-106.3,133.1
		c-64,55-136.6,97.4-217.7,126.9c-83.2,29.6-172.7,44.4-268.3,44.4c-121.8,0-219.3-22.2-292.6-66.6
		c-73.3-44.4-109.9-104.4-109.9-180.1c0-87.4,49.4-155,148.1-202.8c98.7-47.8,241.3-71.7,427.7-71.7H3374.2z"/>
	<path fill="#B55C5A" d="M3880.9,4615.3h-8.3c-9.6-28.2-16.5-65.7-20.6-112.5l-9.3-135.2c0-99.8,13.4-194.7,40.2-284.8
		c11.7-44,28.2-90.8,49.5-140.3c21.3-47.5,45.1-96,71.2-145.5l34.1-185.8c33.7-193.3,65.4-293.4,94.9-300.3l84.6-16.5l17.5,6.2
		l4.1,14.4v8.3l-59.9,241.5c73.6-101.8,137.3-173,190.9-213.6c52.3-41.3,103.5-61.9,153.8-61.9c50.9,0,91.2,16.5,120.7,49.5
		c28.2,33.7,42.3,76.4,42.3,128c0,73.6-28.2,146.9-84.6,219.8c-28.2,35.8-61.9,69.1-101.1,100.1c-39.9,32.3-88.1,63.3-144.5,92.9
		c13.1,17.9,29.4,32.2,49,42.8c19.6,10.7,42.8,16,69.7,16c64.7,0,137.9-40.2,219.8-120.7c80.5-79.8,178.5-210.5,294.1-392.1
		l4.1,14.4l2.1,12.4c0,22.7-7.9,46.8-23.7,72.2c-5.5,12.4-16,29.9-31.5,52.6c-15.5,22.7-36.6,51.6-63.5,86.7
		c-101.1,133.5-185.4,225-252.8,274.5c-68.1,50.9-135.2,76.4-201.2,76.4c-53.7,0-105.3-12.7-154.8-38.2
		c-44.7-25.4-67.1-50.2-67.1-74.3c0-11,18.2-25.1,54.7-42.3l59.9-31c70.2-45.4,125-96.3,164.6-152.7
		c39.6-56.4,59.3-114.2,59.3-173.4c0-29.6-8.6-54.7-25.8-75.3c-18.6-21.3-42-32-70.2-32c-37.8,0-82.2,26.2-133.1,78.4
		c-24.8,24.8-49.9,55-75.3,90.8c-26.8,35.1-53.7,75-80.5,119.7c-32.3,143.8-60.5,263.8-84.6,360.2
		c-28.2,114.2-52.3,204.3-72.2,270.4C3954.1,4465.6,3915.3,4565.7,3880.9,4615.3z M3902.5,4448.1c17.2-31,32.7-89.4,46.4-175.4
		c13.1-84.6,25.8-198.8,38.2-342.6c-32.3,52.3-56.4,114.5-72.2,186.8c-17.2,71.5-25.8,148.2-25.8,230.1l2.1,54.7L3902.5,4448.1z"/>
	<path fill="#B55C5A" d="M5281.3,3691.6c-34.4,60.5-65.7,111.1-93.9,151.7c-28.9,42-56.1,76.4-81.5,103.2
		c-52.3,53-100.8,79.5-145.5,79.5c-52.3,0-93.2-19.9-122.8-59.9c-31.7-36.5-47.5-90.1-47.5-161c0-60.5,18.6-124.5,55.7-191.9
		c35.1-68.1,85.3-132.4,150.7-193c42-39.2,89.8-70.2,143.4-92.9c52.3-20.6,104.9-31,157.9-31c34.4,0,61,2.1,80,6.2
		c18.9,4.1,36.8,8.9,53.7,14.4c16.8,5.5,32.5,11,47,16.5l10.3,15.5c0,19.3-8.6,54.4-25.8,105.3l-18.6,66l-92.9,316.8l-2.1,6.2
		l-11.4,68.1c0,8.3,4.5,17.2,13.4,26.8c6.9,10.3,15.1,15.5,24.8,15.5c32.3,0,81.2-37.5,146.5-112.5c28.2-32.3,68.1-82.2,119.7-149.6
		c50.9-68.1,108-147.9,171.3-239.4l2.1,14.4l2.1,13.4c0,22.7-21,63.6-62.9,122.8l-10.3,14.4l-13.4,14.4
		c-192.6,262.8-328.5,394.2-407.6,394.2c-31,0-55.7-8.6-74.3-25.8c-18.6-17.2-27.9-42.7-27.9-76.4c0-19.9,5.2-47.5,15.5-82.6
		c8.3-37.8,15.1-66,20.6-84.6C5268.5,3728.5,5276.4,3706.8,5281.3,3691.6z M5380.3,3373.8c-2.8-4.1-7.6-8.3-14.5-12.4
		c-6.9-2.7-16.9-6.9-29.9-12.4c-12.4-4.1-28.6-6.2-48.5-6.2c-33.7,0-66.7,13.4-99.1,40.2c-36.5,26.2-74,66-112.5,119.7
		c-50.9,70.9-89.1,137.9-114.5,201.2c-26.8,63.3-40.2,117.6-40.2,163.1c0,24.8,6.5,45.8,19.6,63c11.7,18.6,26.5,27.9,44.4,27.9
		c48.2,0,108-52.3,179.6-156.9C5236.9,3696.5,5308.8,3554,5380.3,3373.8z"/>
	<path fill="#B55C5A" d="M6039.8,3980.6c-16.5,8.3-32.2,15-47,20.1c-14.8,5.2-34.9,11.2-60.4,18.1c-26.8,7.6-55.1,11.4-84.6,11.4
		c-60.5,0-109.1-11.7-145.5-35.1c-37.2-20.6-55.7-47.8-55.7-81.5c0-25.4,12-47.5,36.1-66c22.7-16.5,49.5-24.8,80.5-24.8l29.9,4.1
		l26.8,6.2c-9.6,13.8-18.8,26.7-27.3,38.7c-8.6,12-12.9,25.3-12.9,39.7c0,19.3,10,36.8,29.9,52.6c19.9,12.4,46.8,18.6,80.5,18.6
		c48.8,0,90.5-12.7,124.9-38.2c32.3-25.4,48.5-57.1,48.5-94.9c0-25.4-6.5-47.8-19.6-67.1c-13.8-19.9-48.9-51.9-105.3-96
		c-63.3-47.5-104.2-83.2-122.8-107.3c-17.9-24.1-26.8-50.2-26.8-78.4c0-55,30.3-103.5,90.8-145.5c59.2-42.7,130.7-64,214.6-64
		c49.5,0,86.3,7.9,110.4,23.7c24.1,15.8,36.1,39.2,36.1,70.2c0,23.4-14.1,46.4-42.3,69.1c-13.1,10.3-27.2,17.5-42.3,21.7
		c-17.2,5.5-36.8,9.6-58.8,12.4l-7.2-10.3c13.1-8.9,23-20.3,29.9-34.1c5.5-12.4,8.3-27.2,8.3-44.4c0-18.6-7.7-33.4-23.2-44.4
		c-15.5-11-36-16.5-61.4-16.5c-40.6,0-72.9,9.6-97,28.9c-25.5,20-38.2,44-38.2,72.2c0,39.2,36.8,85,110.4,137.3l58.8,44.4
		c35.1,26.8,61,54.4,77.9,82.6c16.9,28.2,25.3,56.4,25.3,84.6c0,22.7-4.1,42.3-12.4,58.8c-8.3,18.6-23.7,40.6-46.4,66
		c53.7-8.9,117.6-55.7,191.9-140.3c73.6-82.6,155.5-197.8,245.6-345.7l6.2,8.3l2.1,14.4c0,11-2.1,23.2-6.2,36.6
		c-4.1,13.4-11.7,29.4-22.7,48c-15.8,33.7-43.3,76.7-82.6,129c-73.6,103.9-142.8,180.6-207.4,230.1
		C6183.2,3943.4,6113.4,3972.3,6039.8,3980.6z"/>
	<path fill="#B55C5A" d="M6777.6,3980.6c-16.5,8.3-32.2,15-47,20.1c-14.8,5.2-34.9,11.2-60.4,18.1c-26.8,7.6-55.1,11.4-84.6,11.4
		c-60.5,0-109.1-11.7-145.5-35.1c-37.2-20.6-55.7-47.8-55.7-81.5c0-25.4,12-47.5,36.1-66c22.7-16.5,49.5-24.8,80.5-24.8l29.9,4.1
		l26.8,6.2c-9.6,13.8-18.8,26.7-27.3,38.7c-8.6,12-12.9,25.3-12.9,39.7c0,19.3,10,36.8,29.9,52.6c19.9,12.4,46.8,18.6,80.5,18.6
		c48.8,0,90.5-12.7,124.9-38.2c32.3-25.4,48.5-57.1,48.5-94.9c0-25.4-6.5-47.8-19.6-67.1c-13.8-19.9-48.9-51.9-105.3-96
		c-63.3-47.5-104.2-83.2-122.8-107.3c-17.9-24.1-26.8-50.2-26.8-78.4c0-55,30.3-103.5,90.8-145.5c59.2-42.7,130.7-64,214.7-64
		c49.5,0,86.3,7.9,110.4,23.7c24.1,15.8,36.1,39.2,36.1,70.2c0,23.4-14.1,46.4-42.3,69.1c-13.1,10.3-27.2,17.5-42.3,21.7
		c-17.2,5.5-36.8,9.6-58.8,12.4l-7.2-10.3c13.1-8.9,23-20.3,29.9-34.1c5.5-12.4,8.3-27.2,8.3-44.4c0-18.6-7.7-33.4-23.2-44.4
		c-15.5-11-36-16.5-61.4-16.5c-40.6,0-72.9,9.6-97,28.9c-25.5,20-38.2,44-38.2,72.2c0,39.2,36.8,85,110.4,137.3l58.8,44.4
		c35.1,26.8,61,54.4,77.9,82.6c16.9,28.2,25.3,56.4,25.3,84.6c0,22.7-4.1,42.3-12.4,58.8c-8.3,18.6-23.7,40.6-46.4,66
		c53.7-8.9,117.6-55.7,191.9-140.3c73.6-82.6,155.5-197.8,245.6-345.7l6.2,8.3l2.1,14.4c0,11-2.1,23.2-6.2,36.6
		c-4.1,13.4-11.7,29.4-22.7,48c-15.8,33.7-43.3,76.7-82.6,129c-73.6,103.9-142.8,180.6-207.4,230.1
		C6921.1,3943.4,6851.2,3972.3,6777.6,3980.6z"/>
	<path fill="#B55C5A" d="M7737.4,3807.2c4.1,14.4,11.2,25.1,21.2,32c10,6.9,20.5,10.3,31.5,10.3c29.6,0,68.5-26.8,116.6-80.5
		c46.8-53,130.7-164.8,251.8-335.4l4.1,10.3l2.1,12.4c0,14.4-6.2,34.4-18.6,59.9l-70.2,103.2c-86,118.3-154.5,201.6-205.4,249.7
		c-44.7,42-83.9,62.9-117.6,62.9c-11.7,0-23.7-2.7-36.1-8.3c-13.1-4.1-27.2-14.1-42.3-29.9c-45.4,48.2-92.5,84.3-141.4,108.4
		c-25.5,11-48.9,19.6-70.2,25.8c-22.7,5.5-46.8,8.3-72.2,8.3c-77.1,0-139-24.1-185.8-72.2c-47.5-46.8-71.2-110.4-71.2-190.9
		c0-60.5,12-115.2,36.1-164.1c22-53.7,57.1-106.6,105.3-158.9c46.1-50.9,96.7-91.2,151.7-120.7c56.4-26.8,110.1-40.2,161-40.2
		c66,0,120.9,25.5,164.6,76.4c43.7,50.9,65.5,113.5,65.5,187.8c0,39.9-6.2,80.8-18.6,122.8c-7.6,24.1-15.5,45.4-23.7,64
		C7767.3,3758,7754.5,3780.4,7737.4,3807.2z M7712.6,3478c-8.9-48.1-24.4-85-46.4-110.4c-24.1-24.1-53.7-36.1-88.7-36.1
		c-14.4,0-34.4,5.2-59.9,15.5c-22,12.4-41.6,27.2-58.8,44.4c-50.9,46.1-92.9,109.4-125.9,189.9c-34.4,81.9-51.6,157.9-51.6,228.1
		c0,57.8,11.2,102.2,33.5,133.1c22.3,31,54.9,46.4,97.5,46.4c33.7,0,68.8-14.1,105.3-42.3c21.3-16.5,40.6-34.7,57.8-54.7
		c15.1-18.6,33.4-44,54.7-76.4l-12.4-33l-3.1-42.3c0-39.9,7.9-82.9,23.7-129c8.3-22.7,18.9-44.7,32-66
		C7681.3,3524.5,7695.4,3502.1,7712.6,3478z"/>
	<path fill="#B55C5A" d="M9569.1,4082.8l-17.5-14.4l84.6-983.5l4.1-70.2l2.1-56.8c0-114.2-38.5-200.9-115.6-260.1
		c-79.1-57.8-194.7-86.7-346.7-86.7c-138.3,0-248.4,27.5-330.2,82.6c-83.2,55-124.9,130.4-124.9,226c0,84.6,38.9,151.7,116.6,201.2
		c76.4,50.2,179.9,75.3,310.6,75.3l64-4.1l83.6-8.3l11.4,4.1l4.1,23.7l-6.2,12.4l-88.9,12.4l-98.2,4.1
		c-161.9,0-288.7-30.3-380.3-90.8c-91.6-60.5-137.4-142.1-137.4-244.6c0-103.2,48.5-185.8,145.6-247.7
		c97.1-60.5,230.3-90.8,399.7-90.8c212.8,0,370.1,38.2,472,114.6c101.2,75.7,151.8,194,151.8,355l-2.1,103.2l-6.2,88.7l-36.1,363.3
		l-14.5,126.9l-23.7,189.9c197.4-199.5,343.3-395.9,437.6-589.3c94.9-191.3,142.4-391.5,142.4-600.6v-41.3v-27.9l139.3-116.6
		l14.4,4.1l4.1,21.7l2.1,22.7c0,24.1-2.8,53-8.3,86.7l-23.7,116.6c-9.6,40.6-20,80.2-31,118.7c-18.6,64.7-39.9,125.2-64,181.6
		c-32.3,86-76,175.4-131.1,268.3c-77.1,136.9-167.9,268-272.4,393.2c-46.1,56.4-98,113.5-155.8,171.3
		C9685.4,3976.8,9626.9,4031.8,9569.1,4082.8z"/>
	<path fill="#B55C5A" d="M10302.8,3760.8l131.1-407.6l16.5-25.8l23.7-10.3l73.3-14.4h8.3l11.3,4.1l4.1,10.3v8.3l-141.4,439.6
		l-23.7,86.7l-8.3,48.5c0,17.2,4.1,31.3,12.4,42.3c8.3,13.1,21,19.6,38.2,19.6c40.6,0,99.7-42.3,177.5-126.9
		c76.4-84.6,174.4-216.4,294.1-395.2l2.1,16.5l2.1,10.3c0,31.7-30.3,88.7-90.8,171.3l-20.6,29.9
		c-92.2,125.2-171.3,215.5-237.4,270.9c-66,55.4-126.6,83.1-181.6,83.1c-36.5,0-65.4-11.7-86.7-35.1c-21.3-22-32-53-32-92.9
		l6.2-54.7L10302.8,3760.8z M10613.5,3127.1c-13.1,0-26.7-1.9-40.8-5.7c-14.1-3.8-27.3-9.1-39.7-16c-26.8-13.8-40.2-27.9-40.2-42.3
		c0-8.3,7.9-27.9,23.7-58.8c6.9-12.4,13.8-23,20.6-32c2.7-2.7,6.2-6.2,10.3-10.3c5.5,0,16.8,4.8,34.1,14.4l29.9,19.6l15.5,8.3
		c16.5,6.9,26.1,16.9,28.9,29.9c0,35.1-2.8,58.8-8.3,71.2C10639.9,3119.9,10628.6,3127.1,10613.5,3127.1z"/>
	<path fill="#B55C5A" d="M10718.7,4615.3h-8.3c-9.6-28.2-16.5-65.7-20.6-112.5l-9.3-135.2c0-99.8,13.4-194.7,40.2-284.8
		c11.7-44,28.2-90.8,49.5-140.3c21.3-47.5,45.1-96,71.2-145.5l34.1-185.8c33.7-193.3,65.4-293.4,94.9-300.3l84.6-16.5l17.5,6.2
		l4.1,14.4v8.3l-59.9,241.5c73.6-101.8,137.3-173,190.9-213.6c52.3-41.3,103.5-61.9,153.8-61.9c50.9,0,91.2,16.5,120.7,49.5
		c28.2,33.7,42.3,76.4,42.3,128c0,73.6-28.2,146.9-84.6,219.8c-28.2,35.8-61.9,69.1-101.1,100.1c-39.9,32.3-88.1,63.3-144.5,92.9
		c13.1,17.9,29.4,32.2,49,42.8c19.6,10.7,42.8,16,69.7,16c64.7,0,137.9-40.2,219.8-120.7c80.5-79.8,178.5-210.5,294.1-392.1
		l4.1,14.4l2.1,12.4c0,22.7-7.9,46.8-23.7,72.2c-5.5,12.4-16,29.9-31.5,52.6c-15.5,22.7-36.6,51.6-63.5,86.7
		c-101.1,133.5-185.4,225-252.8,274.5c-68.1,50.9-135.2,76.4-201.2,76.4c-53.7,0-105.3-12.7-154.8-38.2
		c-44.7-25.4-67.1-50.2-67.1-74.3c0-11,18.2-25.1,54.7-42.3l59.9-31c70.2-45.4,125-96.3,164.6-152.7
		c39.6-56.4,59.3-114.2,59.3-173.4c0-29.6-8.6-54.7-25.8-75.3c-18.6-21.3-42-32-70.2-32c-37.8,0-82.2,26.2-133.1,78.4
		c-24.8,24.8-49.9,55-75.3,90.8c-26.8,35.1-53.7,75-80.5,119.7c-32.3,143.8-60.5,263.8-84.6,360.2
		c-28.2,114.2-52.3,204.3-72.2,270.4C10792,4465.6,10753.1,4565.7,10718.7,4615.3z M10740.4,4448.1c17.2-31,32.7-89.4,46.4-175.4
		c13.1-84.6,25.8-198.8,38.2-342.6c-32.3,52.3-56.4,114.5-72.2,186.8c-17.2,71.5-25.8,148.2-25.8,230.1l2.1,54.7L10740.4,4448.1z"/>
</g>
</svg>
