<?xml version="1.0" encoding="utf-8"?>
<!-- Generator: Adobe Illustrator 18.0.0, SVG Export Plug-In . SVG Version: 6.00 Build 0)  -->
<!DOCTYPE svg PUBLIC "-//W3C//DTD SVG 1.1//EN" "http://www.w3.org/Graphics/SVG/1.1/DTD/svg11.dtd">
<svg version="1.1" id="Camada_1" xmlns="http://www.w3.org/2000/svg" xmlns:xlink="http://www.w3.org/1999/xlink" x="0px" y="0px"
	 viewBox="0 0 2456 4752" enable-background="new 0 0 2456 4752" xml:space="preserve">
<path fill-rule="evenodd" clip-rule="evenodd" fill="#BE5D5D" d="M1215.6,3343.8c7,12.8,92.7,92.6,110.6,108.9
	c-33.8-91.9,112-587.3,140.1-697.6c47-184.5,80.3-370.2,44.5-562.2l-34.2-123.9c-16.8-44.6-11.7-27-7.1-33.4
	c-9.9-23.8-42.1-64.5-57.5-85c-22-29.5-44.9-54-64.4-83c22.7,12.6,27.1,32.9,55.3,50.2c-22.6-36.2-43.1-61-65.9-91.9
	c-21.3-28.9-48.9-50.7-60.7-97.4c-20.9-82.7,33.8-189.1,72.6-234.6c11.4-17.9,19.4-46.4,31-64.7c57.2-90.5,133-119.2,145.1-133.8
	c3.8-16.8,100.4-100.5,115.6-112.8c9-7.2,11.5-8.9,20.2-17.2l21.7-22c-46.6,22.7-177.7,135.3-223.4,173.6
	c-127.7,107.1-347.1,321.7-206.4,497.6c72,90.1,107.7,177.7,81.9,305.2c-38.8,192.3-174.5,269.5-227.1,567.1
	c-31.1,176-9.2,356,53.9,520.7l45.4,104.2c2,4.1,7.6,14,8.7,16.9C1225.5,3354.4,1220.4,3338.4,1215.6,3343.8z"/>
<path fill-rule="evenodd" clip-rule="evenodd" fill="#BE5D5D" d="M1469.5,2035.7c139.6,239.6,111.9,443,37.6,718.6
	c-30.5,113.3-73.6,219-102.6,338.3c-30.1,123.7-53.7,242.9-58.9,377.6c-10.6-5.1-14.3-6-19.4-17.5c-18-16.3-103.7-96.2-110.6-108.9
	c-9.6-11.6-22.2-20.1-33-32.6c-10.3-11.8-17.9-22.5-29-33.5c-274.6-272.6-406.2-596.7-336.3-959.9c49.6-258,148-355.7,121.8-576.6
	c-8.4-70.4-24.9-129.3-43.9-192.8c-47.2-158.2-37.5-247.1,70.5-354.5c35.1-35,86.3-83.9,104.7-132.2
	c-16.1,12.1-75.2,71.9-118.6,105.8c-32.6,25.5-65.4,45.1-95.2,75.3c-10.4,10.6-14,20.6-27.6,29.6l0.3-24.9
	c-5.5-64.6,29.9-152.6,60.1-188.2c42.6-50.3,117.3-52.2,200.9-46.1c77.2,5.6,157,15.8,201.3-34.2c42.9-48.4,50.9-132.3,46.8-211.2
	c-27.3,40.3,8.5,256.3-255.7,185.5c-623-166.8-222.1,704.2-233.5,877.3c9.2,182.1-86.8,244.4-131.3,425.5
	c-48.5,268.5-20.5,474.3,113.6,720.1c47,86.1,91.4,154.8,143.4,226.7c27.6,38.1,53.3,70.2,82.4,104.7l85.8,97.1
	c56.8,62.1,121.9,132.4,184.8,185.5c29.2,24.6,21.8,22.6,29,66.8c25.8,157.9,82.6,261,185.5,371.5c8.6,9.2,14.2,14.2,23.2,22.7
	c73.5,69.2,144.6,117.7,246.8,169.1c29.7,14.9,244.6,110.7,267.4,103.4c-52.2-13.6-167.6-75.9-214.8-102
	c-89.5-49.6-204.2-130.1-267.4-206.8c-74.3-90.1-138.9-187-152.9-318.2l430.8,331.4c76.4,55.5,209.8,165.6,270.6,232.7
	c41,45.3,77.5,82.4,115,138.6c76.6,114.8,111,197.5,160,344.7c-2.9-53.3-40.7-159.9-60-207.6c-26.1-64.5-56.3-120.7-88.6-173.4
	c-24.4-39.7-67.8-96.9-98.7-134.2c-69.7-83.9-110.3-115.6-178-183.7l-337.4-290.6c-7.2-6.3-11.1-8.2-18.4-15l-104.1-91.4
	c-97.8-97.2-106.2-58.4-97.5-161.3c9.1-108.2,35.9-227.3,62.2-331.5c105.7-417.8,224.1-786.5-45.2-1165
	c-11.3-15.9-49.9-61-52.5-72.5c-28.1-17.3-32.6-37.6-55.3-50.2c19.5,28.9,42.4,53.5,64.4,83
	C1427.4,1971.2,1459.6,2011.9,1469.5,2035.7z"/>
<path fill-rule="evenodd" clip-rule="evenodd" fill="#BE5D5D" d="M1418.5,680.2c-40.7,10.2-103.7,42.7-150.6,59.1
	c-49.3,17.3-140.9,51.3-139.4-31.2c1.3-75,81.2-253.3,109.9-322.7c20.4-49.2,41.6-101.9,63.9-148.3c47-97.6,125.1-216.8,237.9-119.7
	c59.8,51.5,61.8,73.8,100,116.1c-33-123.1-147.7-250.9-285.4-189c-195.2,87.8-306.6,638.9-269.8,727.7
	C1134.2,890.7,1365.2,710.7,1418.5,680.2z"/>
<path fill-rule="evenodd" clip-rule="evenodd" fill="#BE5D5D" d="M2031.8,2813.5l-71.5-80.3c-42.4-44.7-83.9-91.9-116.5-145.4
	c-56.5-92.6-75.4-202.3-90.7-325.4c-15.1-121.6-29.9-243.7-44.8-365.7c-12.7-104.5-63.2-227-100.3-315.8
	c2.5,53.9,17.3,121.4,22.6,180.4c31.9,354.9-52.2,584.2,180.1,855.3c8.4,9.8,16.3,16,24.4,25.3c41.2,46.9,88.3,85.3,136.1,126
	C1986.7,2781.2,2011.9,2802.7,2031.8,2813.5z"/>
<path fill-rule="evenodd" clip-rule="evenodd" fill="#BE5D5D" d="M1864.6,1615.3c24.6-37.4,77-217.5,89.5-276.9
	c24.3-115.4,27.5-225.1-47.8-289.6c-94.2-80.7-318.6,35.9-286.4-261.9c4.4-40.6,26.4-121.9,25.7-151.4c0.2,16-72.8,156.8-80.8,272
	c-17.5,251.3,295,96.4,331.5,384.1C1911,1407,1869.2,1506.8,1864.6,1615.3z"/>
<path fill-rule="evenodd" clip-rule="evenodd" fill="#BE5D5D" d="M32.4,2645.1c373.4-28.1,611.9-389.9,726.3-905.7
	C576.4,2133.9,370.9,2567.5,32.4,2645.1z"/>
<path fill-rule="evenodd" clip-rule="evenodd" fill="#BE5D5D" d="M1525,1295.5c-12.1,14.6-87.9,43.3-145.1,133.8
	c-11.5,18.3-19.6,46.8-31,64.7c-14.7,63.5-30.8,133.7-25.1,204.6c34.2-55.3,17.3-157.6,189.4-339.7c9.9-10.5,17.5-16.6,27.4-26.7
	c22-22.6,128.4-119.1,139-122.1C1659.5,1213.7,1550.6,1280.6,1525,1295.5z"/>
<path fill-rule="evenodd" clip-rule="evenodd" fill="#FFFFFF" d="M3013.6,5249.8c-5,5.1-26.3,36.2-23.5,49.3
	c2.6,12.1,33,25.2,49.9,26c33,1.5,22.5-46.4,21.9-47.7C3059.7,5273,3023.2,5251.4,3013.6,5249.8z"/>
<path fill-rule="evenodd" clip-rule="evenodd" fill="#FFFFFF" d="M3021.3,5260.6c-5,5.1-26.3,36.2-23.5,49.3
	c2.6,12.1,33,25.2,49.9,26c33,1.5,22.5-46.4,21.9-47.7C3067.3,5283.8,3030.8,5262.1,3021.3,5260.6z"/>
<path fill-rule="evenodd" clip-rule="evenodd" fill="#FFFFFF" d="M-44.6,5253.7"/>
<path fill-rule="evenodd" clip-rule="evenodd" fill="#FFFFFF" d="M-37.7,5263.4"/>
<path fill-rule="evenodd" clip-rule="evenodd" fill="#FFFFFF" d="M-26.7,5301.2"/>
<path fill-rule="evenodd" clip-rule="evenodd" fill="#FFFFFF" d="M-21.4,5308.7"/>
</svg>
