<?xml version="1.0" encoding="utf-8"?>
<!-- Generator: Adobe Illustrator 18.0.0, SVG Export Plug-In . SVG Version: 6.00 Build 0)  -->
<!DOCTYPE svg PUBLIC "-//W3C//DTD SVG 1.1//EN" "http://www.w3.org/Graphics/SVG/1.1/DTD/svg11.dtd">
<svg version="1.1" id="Layer_1" xmlns="http://www.w3.org/2000/svg" xmlns:xlink="http://www.w3.org/1999/xlink" x="0px" y="0px"
	 viewBox="476.8 0 803.2 800" enable-background="new 476.8 0 803.2 800" xml:space="preserve">
<g id="g2987" transform="matrix(0.98046874,0,0,0.98046874,4.9935963,4.9986352)">
	<path id="path2989" fill="none" stroke="#000000" stroke-width="10.1992" d="M1292.2,402c0,220.9-179.1,400-400,400
		s-400-179.1-400-400S671.3,2,892.2,2S1292.2,181,1292.2,402z"/>
</g>
<g>
	<g transform="scale(0.0625, 0.0625)">
		<path d="M18494.2,4126.9c6.3-48.2,0-97.8-19.2-143.7c-67.4-315.4-293.7-475.6-674.7-475.6H10559c-332.7,0-692.3,122.1-867.2,363.2
			c-14.1,11-27.5,23.5-39.7,37.6c-56.5,65.2-77.3,149.2-64.2,228.2c-2.5,21.9-3.8,44.3-3.8,67.3v4456.2
			c0,461.6,513.4,974.8,974.8,974.8h7241.3c461.6,0,696.3-513.2,696.3-974.8V4203.9C18496.6,4177.4,18495.8,4151.9,18494.2,4126.9z
			 M10559,4064.6h7241.3c1.3,0,2.6,0,3.9,0l-3763.8,2999.7l-3748.6-2987.5C10377.2,4061.1,10482,4064.6,10559,4064.6z
			 M17800.3,9077.8H10559c-153.5,0-417.8-264.1-417.8-417.8l0-3990.1L13858,7643.4c52.4,45.4,117.4,68,182.4,68
			c65,0,130-22.6,182.4-68l3716.8-2973.3v3990C17939.6,8813.8,17954,9077.8,17800.3,9077.8z"/>
	</g>
</g>
</svg>
